Coordinates
version=1
nRows=17
nColumns=40
inDegrees=yes

Units are S.I. units (second, meters, Newtons, ...)
Angles are in degrees.

endheader
time	pelvis_tilt	pelvis_list	pelvis_rotation	pelvis_tx	pelvis_ty	pelvis_tz	hip_flexion_r	hip_adduction_r	hip_rotation_r	knee_angle_r	knee_angle_r_beta	ankle_angle_r	subtalar_angle_r	mtp_angle_r	hip_flexion_l	hip_adduction_l	hip_rotation_l	knee_angle_l	knee_angle_l_beta	ankle_angle_l	subtalar_angle_l	mtp_angle_l	lumbar_extension	lumbar_bending	lumbar_rotation	arm_flex_r	arm_add_r	arm_rot_r	elbow_flex_r	pro_sup_r	wrist_flex_r	wrist_dev_r	arm_flex_l	arm_add_l	arm_rot_l	elbow_flex_l	pro_sup_l	wrist_flex_l	wrist_dev_l
     50.28000000	     -5.30629202	     -5.25713253	     -0.01626771	      0.94718293	      0.92840030	      0.48621816	     14.63109942	      3.66556497	    -14.36215931	     18.12729918	     18.12729918	     11.00825272	      1.97205791	     -1.25895420	     26.74742735	    -12.15585377	      0.20009369	     61.94919793	     61.94919793	      9.95843850	    -18.18254115	     11.46351856	    -10.10811828	      6.92869574	      0.32316136	     18.43951174	    -17.57471461	     -5.62492473	     69.45251585	     45.50498580	      0.00000000	      0.00000000	      1.42961549	     -7.55797553	     -2.05971264	     27.61090324	     45.61216817	      0.00000000	      0.00000000
     50.29285714	     -5.55547137	     -5.09558727	      0.25235500	      0.94489186	      0.92883681	      0.48643609	     14.29423794	      3.56215848	    -14.46014506	     17.60404662	     17.60404662	     11.14115622	      2.01943896	     -1.22847911	     28.34459216	    -11.91504270	      0.22789133	     60.20378986	     60.20378986	     10.30672257	    -18.24468972	     11.54124645	    -10.09505310	      6.73797733	      0.95234926	     20.40679569	    -18.09716195	     -5.92191804	     70.39031637	     45.49272172	      0.00000000	      0.00000000	      0.40697724	     -7.12353134	     -1.97222003	     27.28512034	     45.58130437	      0.00000000	      0.00000000
     50.30571429	     -5.77706823	     -4.95375306	      0.56632010	      0.94266212	      0.92933143	      0.48654352	     13.77964986	      3.50744009	    -14.58805963	     16.78695354	     16.78695354	     11.18369140	      2.15564026	     -1.14918757	     29.74628754	    -11.58026016	      0.34458636	     58.14137184	     58.14137184	     10.47546511	    -18.46967233	     11.80245993	    -10.15815302	      6.60118699	      1.22015367	     22.59368308	    -18.42091246	     -6.19615026	     71.81819021	     45.46406978	      0.00000000	      0.00000000	     -0.78718011	     -6.74624851	     -1.85169139	     26.95425638	     45.54177373	      0.00000000	      0.00000000
     50.31857143	     -5.81353583	     -4.92165168	      0.96783332	      0.94067839	      0.92999525	      0.48655050	     12.91902349	      3.57255933	    -14.98514411	     15.69787929	     15.69787929	     10.94482774	      2.54053027	     -1.71878126	     30.77304895	    -11.24226530	      0.63278566	     55.76958222	     55.76958222	     10.91629125	    -18.58770146	     12.76331718	    -10.48840361	      6.63181721	      1.12223659	     24.31167745	    -18.51207654	     -5.90892752	     75.11803943	     45.35182540	      0.00000000	      0.00000000	     -2.59843006	     -6.70397554	     -1.15902418	     27.93222352	     45.40246704	      0.00000000	      0.00000000
     50.33142857	     -5.94176430	     -4.81876983	      1.31420934	      0.93859398	      0.93045309	      0.48650352	     12.32580709	      3.55667179	    -15.12872280	     14.91200064	     14.91200064	     10.95184469	      2.59955006	     -1.72541883	     31.69841537	    -10.83163113	      0.79494567	     53.05362974	     53.05362974	     11.08133902	    -18.65966802	     13.18050175	    -10.65418850	      6.56266736	      1.33738388	     26.35734807	    -18.67237730	     -6.15626945	     76.40346417	     45.32707571	      0.00000000	      0.00000000	     -3.70499552	     -6.48361097	     -0.87104745	     27.70475221	     45.34124856	      0.00000000	      0.00000000
     50.34428571	     -6.13068538	     -4.70852720	      1.65431275	      0.93652933	      0.93062298	      0.48628003	     11.88015100	      3.49485276	    -15.30920117	     14.28846830	     14.28846830	     11.01949452	      2.68605138	     -1.81452396	     32.56813016	    -10.35817615	      0.96499650	     50.12151258	     50.12151258	     11.20859289	    -18.60944207	     13.54620828	    -10.70409490	      6.48652101	      1.65262923	     28.39773790	    -18.98620873	     -6.35783344	     77.68759714	     45.30106204	      0.00000000	      0.00000000	     -4.76204833	     -6.25734332	     -0.62736638	     27.60217505	     45.28582248	      0.00000000	      0.00000000
     50.35714286	     -6.29586594	     -4.63953622	      1.99069866	      0.93450846	      0.93070536	      0.48596337	     11.43131868	      3.46075545	    -15.55683176	     13.69845235	     13.69845235	     11.03578248	      2.86603599	     -1.97816639	     33.23659906	     -9.85717571	      1.23400598	     46.88935203	     46.88935203	     11.38086461	    -18.44455836	     13.76854715	    -10.80780742	      6.44131662	      1.83766432	     30.35192479	    -19.19811071	     -6.45187358	     79.15395125	     45.26551770	      0.00000000	      0.00000000	     -5.86142496	     -6.08223241	     -0.32252183	     27.61673800	     45.21942222	      0.00000000	      0.00000000
     50.37000000	     -6.54046654	     -4.57098033	      2.30308444	      0.93245472	      0.93051153	      0.48554722	     11.16717062	      3.39418368	    -15.76581641	     13.29826150	     13.29826150	     11.13289579	      2.94949419	     -2.13290963	     33.87361953	     -9.31384765	      1.55709353	     43.47546867	     43.47546867	     11.49645267	    -18.07635926	     13.90472946	    -10.80715189	      6.37798428	      2.16421958	     32.27352240	    -19.52960714	     -6.57741038	     80.34568170	     45.23993242	      0.00000000	      0.00000000	     -6.78530334	     -5.91528609	     -0.10949006	     27.59572006	     45.17025103	      0.00000000	      0.00000000
     50.38285714	     -6.69216173	     -4.51970476	      2.62574860	      0.93060606	      0.93026939	      0.48493014	     10.77316443	      3.29903314	    -16.27505474	     12.86382644	     12.86382644	     11.03565567	      3.46069679	     -3.11617142	     34.13621372	     -8.77206445	      1.88363149	     39.62178283	     39.62178283	     10.74018492	    -17.70570878	     11.60924683	    -10.96155358	      6.40537191	      2.29042033	     33.93768029	    -19.93635396	     -6.10599453	     82.55011989	     45.17068615	      0.00000000	      0.00000000	     -8.26170029	     -6.14739843	      1.52742850	     29.03447570	     44.90257935	      0.00000000	      0.00000000
     50.39571429	     -6.89387504	     -4.47942749	      2.91792144	      0.92874217	      0.92993842	      0.48432237	     10.53698128	      3.24642358	    -16.40430939	     12.62041714	     12.62041714	     11.18482627	      3.36814234	     -3.18164294	     34.42370981	     -8.22291414	      2.31312479	     35.87026524	     35.87026524	     10.88479556	    -16.70131252	     11.65438442	    -10.98017194	      6.37744898	      2.47691520	     35.80490628	    -19.94384155	     -6.25882602	     83.54944299	     45.15320309	      0.00000000	      0.00000000	     -9.02524688	     -6.02171782	      1.84535542	     28.78856596	     44.84979188	      0.00000000	      0.00000000
     50.40857143	     -7.17035805	     -4.50033705	      3.17879643	      0.92692480	      0.92930335	      0.48366214	     10.43674756	      3.23118796	    -16.57193102	     12.49200464	     12.49200464	     11.39649960	      3.32127392	     -3.29431518	     34.75227273	     -7.79082299	      2.67161779	     32.22622587	     32.22622587	     11.10982837	    -15.20670137	     11.72951316	    -10.89084203	      6.43565291	      2.75926654	     37.60368032	    -20.10180165	     -6.36540838	     84.46958718	     45.13568156	      0.00000000	      0.00000000	     -9.67960695	     -5.88965028	      2.00894627	     28.65646447	     44.81818762	      0.00000000	      0.00000000
     50.42142857	     -7.38839784	     -4.65205476	      3.42853562	      0.92529842	      0.92857550	      0.48299064	     10.31481963	      3.34375090	    -16.77328047	     12.45963211	     12.45963211	     11.62769666	      3.30582607	     -3.43388482	     34.96683016	     -7.50220485	      3.10318031	     28.71887044	     28.71887044	     11.30373915	    -13.59396102	     11.87568696	    -10.81935920	      6.63028543	      3.00837332	     39.29559900	    -20.19518677	     -6.42010785	     85.38459121	     45.11614755	      0.00000000	      0.00000000	    -10.35065149	     -5.81660837	      2.13036862	     28.50185393	     44.79169579	      0.00000000	      0.00000000
     50.43428571	     -7.41214909	     -4.53251213	      3.56991308	      0.92409181	      0.92822940	      0.48232552	      9.91106433	      3.19100240	    -16.86695175	     12.38072257	     12.38072257	     11.94736906	      3.44026177	     -3.57226583	     34.70010657	     -7.11611497	      3.03860888	     25.19075674	     25.19075674	     11.33501106	    -11.64985163	     11.87234688	    -11.00441529	      6.45537200	      2.97746275	     40.89456633	    -19.81485746	     -6.15797171	     86.70524616	     45.07383418	      0.00000000	      0.00000000	    -11.09075577	     -5.81370103	      2.35985266	     28.42550153	     44.75003370	      0.00000000	      0.00000000
     50.44714286	     -7.62566231	     -4.82521609	      3.75654825	      0.92283169	      0.92724063	      0.48164399	      9.80703665	      3.45152273	    -17.04612275	     12.42027144	     12.42027144	     12.20562883	      3.43275559	     -3.70748870	     34.95878752	     -7.06401485	      3.30536072	     22.46766738	     22.46766738	     11.33793369	    -10.06797677	     12.09389506	    -10.87348890	      6.78468217	      3.23342306	     42.46751911	    -19.88279287	     -6.16980893	     87.49693213	     45.05653407	      0.00000000	      0.00000000	    -11.65883798	     -5.75721917	      2.45729428	     28.35138591	     44.72853520	      0.00000000	      0.00000000
     50.46000000	     -7.57616669	     -4.71775134	      3.81442153	      0.92215371	      0.92686992	      0.48088594	      9.30488633	      3.32122877	    -17.01991863	     12.37601466	     12.37601466	     12.57872396	      3.52556171	     -3.78832388	     34.57876500	     -6.80367787	      2.85525679	     19.77136350	     19.77136350	     11.24912134	     -8.26145670	     12.30398430	    -11.05810726	      6.61419205	      3.20154642	     43.79012016	    -19.37306428	     -5.79644516	     88.63228855	     45.01580917	      0.00000000	      0.00000000	    -12.27763186	     -5.77507626	      2.65901159	     28.37058799	     44.69303624	      0.00000000	      0.00000000
     50.47285714	     -7.57469888	     -4.83959666	      3.88227674	      0.92161798	      0.92621304	      0.48014325	      8.85745362	      3.43877476	    -17.06095773	     12.32681645	     12.32681645	     12.95069529	      3.61864299	     -3.80383377	     34.48485549	     -6.76545608	      2.38086828	     17.90649505	     17.90649505	     11.06593726	     -6.89682312	     12.47417845	    -11.11846517	      6.69607964	      3.18856984	     45.04435604	    -18.98532954	     -5.43429674	     89.58628344	     44.98229513	      0.00000000	      0.00000000	    -12.91895639	     -5.83121596	      2.88668508	     28.49300149	     44.65560249	      0.00000000	      0.00000000
     50.48571429	     -7.59261793	     -4.97115607	      3.91984472	      0.92132793	      0.92548479	      0.47931632	      8.41555938	      3.56844074	    -17.03297014	     12.27542933	     12.27542933	     13.31538501	      3.66195942	     -3.79798071	     34.44583211	     -6.74079698	      1.88162702	     16.63451590	     16.63451590	     10.75406918	     -6.01183189	     12.65888551	    -11.07653035	      6.79978858	      3.29280235	     46.14007076	    -18.65637609	     -5.18821800	     90.28549221	     44.95943789	      0.00000000	      0.00000000	    -13.36629019	     -5.85409158	      3.05834334	     28.60558936	     44.62909933	      0.00000000	      0.00000000
